<?xml version="1.0" encoding="utf-8"?>
<!-- Generator: Adobe Illustrator 25.1.0, SVG Export Plug-In . SVG Version: 6.00 Build 0)  -->
<svg version="1.1" id="Layer_1" xmlns="http://www.w3.org/2000/svg" xmlns:xlink="http://www.w3.org/1999/xlink" x="0px" y="0px"
	 viewBox="0 0 62 62" style="enable-background:new 0 0 62 62;" xml:space="preserve">
<style type="text/css">
	.st0{fill:none;}
</style>
<path d="M49.27,34.96c0,0.52,0,1.04,0,1.56c0,0.41,0.01,0.82,0,1.22c-0.03,1.01-1.18,1.64-3.07,1.65c-0.74,0.01-1.48,0-2.26,0
	c-0.15,0.15-0.29,0.28-0.43,0.42c-1.01,1.07-2.04,2.13-3.02,3.2c-0.41,0.45-1.01,0.63-1.95,0.63c-5.01-0.01-10.02-0.01-15.03,0
	c-0.93,0-1.54-0.17-1.96-0.63c-1-1.1-2.07-2.19-3.08-3.29c-0.24-0.26-0.51-0.38-1.06-0.35c-0.57,0.03-1.15,0.01-1.72,0
	c-1.71-0.03-2.87-0.65-2.89-1.56c-0.02-0.83,0-1.66,0-2.49c0-0.14,0-0.28,0-0.51c-0.34,0.16-0.54,0.25-0.73,0.34
	c-2.63,1.34-5.27,2.68-7.9,4.02c-0.2,0.1-0.39,0.21-0.6,0.3c-0.49,0.21-1.03,0.27-1.61,0.13c-0.58-0.14-0.88-0.38-0.93-0.72
	c-0.01-0.09,0-0.17,0-0.26c0-2.55,0.01-5.1-0.01-7.66c0-0.39,0.21-0.7,0.63-1.01c3.58-2.63,7.13-5.28,10.71-7.91
	c0.32-0.24,0.47-0.47,0.46-0.76c-0.02-1.57-0.04-3.15,0.01-4.72c0.11-3.38,1.52-6.59,4.77-9.52c2.23-2.02,5.11-3.71,8.81-4.99
	c0.98-0.34,2.06-0.6,3.11-0.88c0.99-0.26,2.02-0.26,3.01,0c1.05,0.28,2.13,0.54,3.11,0.88c4.15,1.44,7.27,3.39,9.58,5.71
	c2.12,2.14,3.3,4.43,3.79,6.83c0.33,1.6,0.27,3.2,0.27,4.81c0,0.63,0.02,1.25-0.01,1.88c-0.02,0.31,0.13,0.55,0.47,0.81
	c3.55,2.61,7.06,5.23,10.62,7.84C60.8,30.29,61,30.62,61,31.04c-0.03,2.49-0.01,4.99-0.01,7.48c0,0.1-0.01,0.2,0,0.31
	c0.03,0.38-0.26,0.65-0.9,0.81c-0.65,0.16-1.24,0.07-1.73-0.19c-1.13-0.57-2.26-1.15-3.39-1.72c-1.64-0.84-3.29-1.67-4.93-2.51
	c-0.19-0.1-0.4-0.19-0.6-0.29C49.38,34.94,49.32,34.95,49.27,34.96z M46.17,37.76c0-0.21,0-0.36,0-0.52c0-6.75,0-13.5,0-20.25
	c0-1.67-0.37-3.32-1.17-4.93c-1.38-2.81-3.91-5.28-7.89-7.29c-1.54-0.78-3.23-1.44-5.14-1.94c-0.68-0.18-1.3-0.2-1.93,0.01
	c-1.14,0.38-2.34,0.71-3.39,1.15c-4.9,2.04-7.92,4.75-9.55,7.91c-0.96,1.86-1.26,3.75-1.25,5.67c0.01,5.79,0.01,11.58,0.01,17.37
	c0,0.79,0,1.57,0,2.36c0,0.15,0.03,0.31,0.05,0.46c4.55,0,9,0,13.55,0c0-0.2,0-0.37,0-0.54c0-4.1,0-8.2,0-12.29
	c0-0.19,0.01-0.38,0.09-0.56c0.18-0.4,0.85-0.63,1.61-0.59c0.72,0.04,1.27,0.31,1.36,0.7c0.04,0.16,0.02,0.32,0.02,0.48
	c0,4.1,0,8.2,0,12.29c0,0.17,0.02,0.34,0.04,0.51C37.14,37.76,41.59,37.76,46.17,37.76z M12.79,24.72c-0.05-0.01-0.1-0.02-0.15-0.03
	c-0.09,0.05-0.18,0.1-0.26,0.16c-2.67,1.98-5.34,3.95-8,5.93c-0.17,0.13-0.28,0.32-0.28,0.48c-0.02,1.78-0.01,3.56-0.01,5.34
	c0,0.09,0.05,0.18,0.1,0.31c0.24-0.12,0.4-0.19,0.56-0.27c2.49-1.27,4.98-2.54,7.49-3.8c0.42-0.21,0.56-0.43,0.55-0.73
	c-0.02-2.32-0.01-4.64-0.01-6.96C12.79,25.01,12.79,24.86,12.79,24.72z M49.36,24.66c-0.05,0.12-0.09,0.16-0.09,0.2
	c0,2.49,0,4.99-0.01,7.48c0,0.18,0.14,0.3,0.37,0.41c2.6,1.32,5.19,2.64,7.78,3.95c0.12,0.06,0.28,0.11,0.5,0.2
	c0.01-0.16,0.03-0.26,0.03-0.35c0-1.73-0.01-3.47,0.01-5.2c0-0.25-0.14-0.44-0.4-0.64c-2.58-1.9-5.15-3.81-7.72-5.71
	C49.71,24.89,49.57,24.8,49.36,24.66z M29.48,39.44c-2.68,0-5.21,0-7.87,0c0.84,0.89,1.63,1.73,2.4,2.56c4.71,0,9.36,0,14,0
	c0.8-0.85,1.58-1.68,2.4-2.56c-2.68,0-5.23,0-7.88,0c0,0.27,0.02,0.51,0,0.76c-0.06,0.49-0.73,0.81-1.63,0.78
	c-0.77-0.02-1.34-0.31-1.42-0.76C29.44,39.96,29.48,39.72,29.48,39.44z"/>
<path d="M38.33,52.8c0,2.35,0,4.69,0,7.04c0,0.15,0.01,0.29-0.02,0.44c-0.09,0.43-0.68,0.72-1.48,0.72
	c-0.83,0.01-1.45-0.29-1.54-0.74c-0.03-0.13-0.02-0.26-0.02-0.39c0-4.71,0-9.41,0-14.12c0-0.13-0.01-0.26,0.02-0.39
	c0.09-0.46,0.69-0.75,1.52-0.75c0.83,0,1.43,0.3,1.5,0.76c0.02,0.14,0.01,0.29,0.01,0.44C38.33,48.14,38.33,50.47,38.33,52.8z"/>
<path d="M23.67,51.28c0-1.75,0-3.5,0-5.25c0-0.13-0.01-0.26,0.02-0.39c0.12-0.42,0.77-0.72,1.52-0.72c0.77,0,1.4,0.3,1.52,0.72
	c0.03,0.11,0.02,0.23,0.02,0.35c0,3.51,0,7.03,0,10.54c0,0.13,0.01,0.26-0.04,0.39c-0.15,0.4-0.76,0.67-1.51,0.67
	c-0.75,0-1.37-0.27-1.51-0.67c-0.05-0.14-0.04-0.29-0.04-0.44C23.67,54.75,23.67,53.02,23.67,51.28z"/>
<path d="M32.55,48.99c0,0.99,0,1.98,0,2.97c0,0.13,0.01,0.26-0.02,0.39c-0.1,0.38-0.66,0.66-1.37,0.69
	c-0.78,0.03-1.41-0.19-1.6-0.59c-0.07-0.15-0.09-0.32-0.09-0.47c-0.01-1.99-0.01-3.99,0-5.98c0-0.16,0.02-0.32,0.09-0.47
	c0.18-0.37,0.82-0.62,1.52-0.6c0.74,0.02,1.35,0.31,1.45,0.7c0.03,0.13,0.02,0.26,0.02,0.39C32.55,47.01,32.55,48,32.55,48.99z"/>
<path d="M30.98,17.97c-4.21-0.01-7.63-1.83-7.62-4.06c0.01-2.23,3.44-4.05,7.64-4.06c4.24-0.01,7.66,1.83,7.63,4.09
	C38.61,16.19,35.22,17.97,30.98,17.97z M30.99,11.48c-2.49,0.01-4.53,1.1-4.53,2.44c0,1.33,2.05,2.43,4.54,2.44
	c2.51,0.01,4.61-1.12,4.58-2.46C35.54,12.56,33.48,11.47,30.99,11.48z"/>
<path class="st0" d="M30.99,11.48c2.49-0.01,4.55,1.08,4.58,2.41c0.03,1.34-2.06,2.47-4.58,2.46c-2.49-0.01-4.54-1.11-4.54-2.44
	C26.46,12.58,28.5,11.49,30.99,11.48z"/>
</svg>
